# xmcd
#
# Track frame offsets:
#	150
#	18852
#	36089
#	57196
#	77253
#	94117
#	109921
#	127875
#	142270
#	158070
#
# Disc length: 2430
#
# Revision: 2
# Processed by: cddbd v1.5.1PL0 Copyright (c) Steve Scherf et al.
# Submitted via: VisiTrax 2.9.10.220 - For more info visit www.synapsa.com
# Normalized: r1:DSETVAR1
#
DISCID=75097c0a
DTITLE=Various Artist - Ulitimate Sentimental Hits
DYEAR=2003
DGENRE=Country
TTITLE0=Tim McGraw - Don't Take The Girl
TTITLE1=LeAnn Rimes - I Need You
TTITLE2=Jo Dee Messina - Burn
TTITLE3=Wynonna - She Is His Only Need
TTITLE4=Sawyer Brown - The Walk
TTITLE5=Lee Greenwood - God Bless The USA - 2003
TTITLE6=Jeff Carson - Butterfly Kisses
TTITLE7=Moe Bandy - Till I'm Too Old To Die Young
TTITLE8=Ronnie McDowell - Unchained Melody
TTITLE9=Jimmy Dean - To A Sleeping Beauty
EXTD=
EXTT0=
EXTT1=
EXTT2=
EXTT3=
EXTT4=
EXTT5=
EXTT6=
EXTT7=
EXTT8=
EXTT9=
PLAYORDER=
